<?xml version="1.0" encoding="UTF-8" standalone="no"?>
<svg
   xmlns:dc="http://purl.org/dc/elements/1.1/"
   xmlns:cc="http://creativecommons.org/ns#"
   xmlns:rdf="http://www.w3.org/1999/02/22-rdf-syntax-ns#"
   xmlns:svg="http://www.w3.org/2000/svg"
   xmlns="http://www.w3.org/2000/svg"
   xmlns:sodipodi="http://sodipodi.sourceforge.net/DTD/sodipodi-0.dtd"
   xmlns:inkscape="http://www.inkscape.org/namespaces/inkscape"
   width="300"
   height="300"
   viewBox="0 0 300 300"
   version="1.1"
   id="svg2216"
   inkscape:version="1.0.1 (3bc2e813f5, 2020-09-07)"
   sodipodi:docname="_MASTER-FRAME-FONT-NEW.svg">
  <defs
     id="defs2210" />
  <sodipodi:namedview
     id="base"
     pagecolor="#ffffff"
     bordercolor="#666666"
     borderopacity="1.0"
     inkscape:pageopacity="0.0"
     inkscape:pageshadow="2"
     inkscape:zoom="0.98994949"
     inkscape:cx="233.17409"
     inkscape:cy="184.99516"
     inkscape:document-units="px"
     inkscape:current-layer="layer1"
     showgrid="false"
     units="px"
     inkscape:window-width="1366"
     inkscape:window-height="705"
     inkscape:window-x="-8"
     inkscape:window-y="-8"
     inkscape:window-maximized="1"
     fit-margin-top="10"
     fit-margin-left="10"
     fit-margin-bottom="10"
     fit-margin-right="10"
     inkscape:showpageshadow="false"
     scale-x="1"
     inkscape:document-rotation="0" />
  <metadata
     id="metadata2213">
    <rdf:RDF>
      <cc:Work
         rdf:about="">
        <dc:format>image/svg+xml</dc:format>
        <dc:type
           rdf:resource="http://purl.org/dc/dcmitype/StillImage" />
        <dc:title />
      </cc:Work>
    </rdf:RDF>
  </metadata>
  <g
     inkscape:label="Layer 1"
     inkscape:groupmode="layer"
     id="layer1"
     transform="translate(0,0)">
    
<g
       aria-label="r"
       style="font-style:normal;font-variant:normal;font-weight:normal;font-stretch:normal;font-size:5.33333px;line-height:1.25;font-family:'Open Sans';-inkscape-font-specification:'Open Sans, Normal';font-variant-ligatures:normal;font-variant-caps:normal;font-variant-numeric:normal;font-feature-settings:normal;text-align:start;letter-spacing:0px;word-spacing:0px;writing-mode:lr-tb;text-anchor:start;fill:#0000ff;fill-opacity:1;stroke:none"
       id="text824"
       transform="translate(250.99077,-149.08022)">
      <path
         d="m -165.56328,286.92345 c -11.99001,-0.70529 -42.30825,-0.4517 -42.02614,-0.31064 2.30692,-12.97769 14.10754,-70.75961 65.06883,-88.17336 0,1.26953 -1.8045,36.26363 -1.66341,47.12518 0.14106,7.33507 0,13.18902 -0.42318,17.56185 -8.09276,13.4096 -14.18527,20.2705 -20.9561,23.79697 z m 51.63644,46.87361 c -0.84635,-4.37283 -4.02018,-9.87414 -9.52148,-16.50391 -5.36025,-6.77083 -8.32249,-11.91949 -8.88672,-15.44597 0.70529,-3.10329 3.73806,-7.96983 9.09831,-14.5996 5.21918,-6.48872 8.32248,-12.06055 9.30989,-16.7155 0.73439,-28.95365 0.43171,-98.02694 0.57617,-110.53618 -36.85625,2.75281 -81.80512,29.23164 -102.06752,59.75493 -17.63238,27.22439 -26.53445,57.64878 -24.55962,90.51553 1.10383,25.26112 16.66659,67.41481 48.24777,94.88114 -0.42318,-4.79601 -0.97765,-8.72024 -0.41341,-21.41555 0.42317,-9.73307 -0.21159,-17.27973 -1.9043,-22.63997 0.14106,0.14106 -2.89171,-6.84136 -9.09831,-20.94727 -3.66753,-8.32248 -5.14865,-15.79861 -4.44336,-22.42838 -0.28211,0.14105 25.31076,-0.57558 36.8776,-1.13985 17.69598,11.26198 19.19682,12.82278 26.31623,18.06693 0.0967,3.61059 0,12.97743 0.84636,44.01042 0.14105,5.64236 0.14105,13.54166 0,23.69791 -0.14106,10.29731 -1.02494,24.70345 -0.88388,29.07628 15.70127,5.11742 21.44208,5.01851 31.17515,6.71122 0.56423,-6.06554 -0.66888,-21.96371 -0.66888,-50.59869 z"
         style="font-style:normal;font-variant:normal;font-weight:normal;font-stretch:normal;font-size:433.333px;font-family:'SunCatcherStudioFont left';-inkscape-font-specification:'SunCatcherStudioFont left';fill:#0a0a0a;fill-opacity:1"
         id="path825"
         inkscape:connector-curvature="0"
         sodipodi:nodetypes="cccccccccccccccccccccccccsc" />
    </g>



<g
       aria-label="s"
       style="font-style:normal;font-variant:normal;font-weight:normal;font-stretch:normal;font-size:5.33333px;line-height:1.25;font-family:'Open Sans';-inkscape-font-specification:'Open Sans, Normal';font-variant-ligatures:normal;font-variant-caps:normal;font-variant-numeric:normal;font-feature-settings:normal;text-align:start;letter-spacing:0px;word-spacing:0px;writing-mode:lr-tb;text-anchor:start;fill:#0a0a0a;fill-opacity:1;stroke:none"
       id="text828"
       transform="translate(250.50168,-148.87588)">
      <path
         d="m 37.212948,284.80624 c -3.244358,-0.14106 -16.613075,0.18204 -33.5401584,0.46413 -12.4131951,0.14106 -53.2221916,-0.49371 -59.5698476,-1.9043 0.552057,-27.99266 -1.72498,-54.73233 1.48112,-79.41373 25.407458,8.66819 40.769662,21.62551 52.3758368,48.94498 10.3200487,-0.32759 21.9323682,1.31391 31.8065002,-0.37881 -12.711212,-42.57024 -59.844111,-86.76137 -116.674814,-91.6622 -1.41059,51.34549 -0.02163,102.62044 1.38896,153.82487 2.680122,0.14106 12.413195,0.0705 29.19922,-0.21159 13.259548,-0.28212 54.4211928,0.35265 60.6277902,1.9043 -2.1158855,27.22439 -34.5205952,64.93245 -60.1158732,71.20283 0.139565,-15.52063 -0.333004,-27.92177 -0.935094,-40.94567 -10.156251,-1.55165 -19.748265,-1.55165 -28.776043,0 -1.41059,29.90451 -3.017733,61.14832 -1.607143,91.05283 37.667101,-1.70419 78.7794529,-27.86149 99.051341,-56.77549 17.209202,-26.66015 27.827268,-58.86256 25.288205,-96.10215 z"
         style="font-style:normal;font-variant:normal;font-weight:normal;font-stretch:normal;font-size:433.333px;font-family:'SunCatcherStudioFont right';-inkscape-font-specification:'SunCatcherStudioFont right';fill:#0a0a0a;fill-opacity:1"
         id="path822"
         inkscape:connector-curvature="0"
         sodipodi:nodetypes="cccccccccccccccc" />
    </g>



  </g>
</svg>
